<?xml version="1.0" standalone="no"?>
<!DOCTYPE svg PUBLIC "-//W3C//DTD SVG 20010904//EN"
 "http://www.w3.org/TR/2001/REC-SVG-20010904/DTD/svg10.dtd">
<svg version="1.0" xmlns="http://www.w3.org/2000/svg"
 width="1769.000000pt" height="387.000000pt" viewBox="0 0 1769.000000 387.000000"
 preserveAspectRatio="xMidYMid meet">
<metadata>
Created by potrace 1.16, written by Peter Selinger 2001-2019
</metadata>
<g transform="translate(0.000000,387.000000) scale(0.100000,-0.100000)"
fill="#ffffff" stroke="none">
<path d="M7620 3048 c0 -667 4 -812 20 -806 4 2 52 57 107 123 55 66 112 131
127 144 l26 24 0 609 0 608 -140 0 -140 0 0 -702z m260 89 l0 -594 -53 -59
c-29 -32 -77 -88 -107 -124 -29 -36 -60 -72 -67 -80 -11 -12 -13 112 -13 718
l0 732 120 0 120 0 0 -593z"/>
<path d="M8010 3195 c0 -380 3 -555 10 -555 6 0 52 30 103 66 51 37 107 73
125 82 l32 16 0 473 0 473 -135 0 -135 0 0 -555z m260 77 l0 -458 -42 -21
c-24 -11 -77 -45 -118 -76 l-75 -55 -6 131 c-4 73 -7 313 -8 535 l-1 402 125
0 125 0 0 -458z"/>
<path d="M1658 3510 c-677 -71 -1232 -502 -1438 -1117 -66 -199 -75 -262 -75
-548 0 -251 1 -264 28 -379 81 -341 213 -583 441 -812 187 -186 373 -300 623
-383 135 -45 253 -71 315 -70 32 0 17 5 -57 18 -520 93 -929 392 -1164 851
-174 339 -227 781 -139 1165 68 298 207 545 432 771 275 274 579 424 973 480
91 13 162 15 313 11 228 -6 381 -30 537 -82 120 -40 296 -124 342 -163 l32
-27 -3 -116 -3 -116 -85 49 c-236 135 -541 209 -865 210 -191 0 -324 -19 -480
-69 -496 -159 -858 -572 -951 -1083 -23 -126 -24 -372 -1 -495 39 -214 109
-395 217 -558 200 -303 489 -495 868 -579 126 -28 408 -31 548 -5 474 86 771
371 864 829 16 74 23 158 27 308 l6 207 -384 6 c-211 4 -464 7 -561 7 l-178 0
0 120 0 120 675 0 675 0 0 -274 c0 -295 -10 -427 -42 -575 -116 -539 -488
-894 -1037 -991 -89 -15 -98 -19 -56 -19 93 -2 330 66 460 132 230 116 443
336 550 571 108 238 144 473 145 949 l0 217 -695 0 -695 0 0 -135 0 -135 561
0 561 0 -5 -222 c-4 -174 -10 -242 -25 -308 -99 -420 -365 -683 -792 -781
-125 -29 -413 -37 -542 -15 -219 37 -436 127 -598 247 -345 255 -550 675 -550
1126 0 286 78 546 235 783 66 100 269 302 370 369 225 148 471 226 755 238
356 14 696 -68 973 -234 32 -19 60 -33 62 -31 3 2 8 63 11 135 l7 130 -44 30
c-105 73 -294 154 -447 192 -184 47 -507 70 -694 51z"/>
<path d="M1605 3105 c-537 -99 -947 -501 -1040 -1020 -21 -119 -21 -351 0
-470 93 -519 472 -914 973 -1014 143 -29 222 -33 367 -22 311 24 549 136 716
334 92 109 162 263 188 410 6 32 14 126 17 208 l7 149 -506 0 -507 0 0 -140 0
-140 361 0 362 0 -6 -45 c-39 -282 -305 -479 -677 -501 -469 -28 -855 253
-976 711 -24 89 -27 119 -28 275 -1 206 16 291 90 449 56 119 113 198 206 287
127 121 261 192 448 241 83 21 116 24 270 24 331 0 595 -72 855 -231 70 -43
99 -49 109 -24 3 9 6 69 6 133 l0 118 -107 60 c-170 96 -345 158 -565 199
-120 23 -459 28 -563 9z m535 -21 c204 -31 414 -103 580 -198 l95 -54 3 -126
c1 -69 0 -126 -4 -126 -3 0 -44 23 -89 50 -252 152 -539 229 -856 230 -140 0
-258 -17 -364 -53 -316 -108 -538 -341 -630 -661 -101 -355 -12 -761 224
-1018 105 -115 263 -210 431 -259 106 -30 349 -38 475 -14 308 57 511 247 549
513 l6 42 -360 0 -360 0 0 130 0 130 485 0 485 0 0 -114 c0 -149 -14 -250 -51
-361 -106 -318 -380 -535 -749 -590 -324 -50 -654 21 -911 196 -89 60 -248
217 -307 302 -268 388 -306 902 -99 1313 196 388 584 648 1027 687 78 7 321
-4 420 -19z"/>
<path d="M5868 2805 c-455 -74 -842 -410 -992 -858 -52 -156 -61 -226 -61
-452 0 -225 10 -294 62 -454 109 -336 363 -619 677 -754 110 -47 256 -87 316
-86 39 1 35 3 -34 15 -502 91 -886 479 -988 999 -25 127 -27 416 -4 545 79
445 396 824 813 974 107 38 192 55 322 66 394 32 742 -88 997 -344 178 -178
281 -375 335 -639 18 -91 20 -152 26 -823 l6 -724 -126 0 -127 0 0 618 c0 339
-5 671 -10 737 -35 450 -310 786 -735 897 -112 29 -311 36 -426 14 -376 -71
-649 -300 -775 -651 -52 -146 -67 -252 -61 -430 3 -82 12 -182 20 -220 73
-329 259 -570 542 -701 119 -55 297 -93 436 -94 130 0 323 47 426 105 25 14
47 25 49 25 2 0 4 -54 4 -120 l0 -120 -41 -26 c-52 -32 -155 -72 -234 -89 -52
-12 -55 -14 -24 -14 50 -1 160 34 242 76 l67 35 0 143 0 142 -92 -46 c-144
-72 -212 -86 -408 -86 -194 1 -275 18 -429 91 -317 149 -504 435 -542 826 -45
465 179 881 573 1063 158 72 363 106 528 86 428 -52 724 -309 841 -731 l23
-85 4 -732 3 -733 140 0 140 0 -4 757 c-3 730 -4 761 -24 843 -24 97 -76 246
-105 305 -79 156 -246 349 -385 446 -131 90 -286 157 -450 194 -98 23 -403 28
-515 10z"/>
<path d="M8739 2810 c-275 -26 -535 -153 -765 -372 -128 -123 -232 -247 -393
-473 l-121 -168 0 -199 c0 -117 4 -198 9 -196 5 2 89 109 186 238 208 275 285
369 415 504 150 155 300 264 441 319 275 109 570 97 834 -34 277 -136 462
-398 521 -739 23 -133 15 -339 -19 -471 -91 -352 -317 -605 -639 -715 -161
-54 -397 -59 -561 -10 -174 52 -323 142 -443 268 -106 111 -207 290 -230 408
-4 16 -10 30 -13 30 -13 0 -191 -249 -191 -267 0 -27 72 -172 121 -244 96
-142 258 -285 416 -367 110 -57 277 -112 360 -118 l68 -4 -87 19 c-310 68
-550 218 -722 451 -57 77 -149 258 -139 274 4 6 43 60 87 120 l79 108 27 -73
c92 -252 244 -426 475 -546 310 -160 689 -145 977 39 78 50 217 184 270 262
59 85 123 228 155 342 27 94 28 109 27 309 0 227 -8 275 -70 432 -94 239 -296
445 -525 537 -286 115 -623 98 -886 -44 -113 -61 -205 -135 -343 -277 -140
-142 -221 -241 -425 -513 -76 -102 -142 -189 -146 -194 -5 -6 -9 69 -9 171 l0
181 107 148 c302 421 508 619 774 743 184 87 343 116 582 108 224 -7 394 -52
567 -149 196 -109 388 -313 493 -523 58 -117 112 -297 130 -440 2 -18 5 -9 6
22 1 62 -45 248 -89 353 -90 217 -262 426 -456 555 -123 82 -294 151 -444 179
-98 19 -301 27 -411 16z"/>
<path d="M4364 2790 c-111 -12 -242 -44 -342 -85 -354 -144 -595 -479 -642
-890 -6 -53 -10 -393 -10 -827 l0 -738 134 0 133 0 6 763 5 762 26 100 c101
387 387 623 791 651 141 10 337 -26 447 -82 l52 -26 85 93 c47 51 86 97 86
103 0 17 -155 94 -255 125 -52 17 -124 35 -160 40 -101 15 -267 20 -356 11z
m336 -25 c52 -7 127 -24 165 -35 76 -24 228 -94 244 -113 6 -9 -14 -36 -69
-94 l-79 -81 -68 28 c-120 50 -257 73 -413 67 -243 -9 -420 -79 -578 -231
-120 -114 -191 -236 -243 -421 -23 -80 -23 -83 -27 -847 l-3 -768 -125 0 -124
0 0 623 c1 746 9 943 43 1077 81 312 270 556 532 687 111 56 253 98 390 116
74 10 269 6 355 -8z"/>
<path d="M10100 2753 c-31 -12 -50 -37 -50 -68 0 -52 17 -64 104 -74 49 -6 84
-15 95 -25 14 -15 16 -97 19 -884 2 -639 -1 -874 -9 -895 -15 -35 -48 -53
-118 -62 -61 -8 -91 -32 -91 -72 0 -34 8 -46 40 -64 34 -18 865 -26 1034 -10
249 24 431 97 561 225 124 124 172 249 162 431 -8 161 -57 272 -174 396 -109
115 -241 191 -398 229 l-70 17 69 34 c91 44 168 115 203 187 25 51 28 67 27
152 0 74 -5 108 -23 152 -44 114 -137 209 -267 273 -124 62 -157 65 -654 64
-245 0 -452 -3 -460 -6z m994 -28 c147 -38 304 -161 361 -280 24 -50 30 -76
33 -158 4 -94 3 -100 -27 -162 -40 -80 -101 -135 -203 -184 -43 -20 -76 -40
-75 -46 2 -5 39 -18 83 -28 260 -59 480 -256 550 -493 26 -88 24 -240 -5 -323
-71 -206 -250 -348 -520 -413 -80 -20 -121 -22 -611 -25 -550 -5 -589 -2 -611
38 -16 31 12 67 58 74 74 12 116 30 137 58 21 28 21 34 24 879 1 573 -1 862
-8 889 -14 51 -44 70 -122 76 -69 6 -98 24 -98 59 0 53 5 54 510 54 386 0 476
-3 524 -15z"/>
<path d="M10672 2620 c-35 -5 -78 -17 -95 -27 -56 -33 -62 -57 -65 -279 -4
-220 6 -305 39 -340 30 -32 107 -48 229 -48 254 0 429 119 460 311 22 136 -39
256 -167 325 -94 51 -268 76 -401 58z m259 -24 c194 -42 308 -166 296 -326
-10 -158 -117 -268 -307 -316 -82 -21 -265 -16 -323 9 -62 27 -67 51 -67 310
0 134 4 236 11 255 12 36 43 59 96 71 59 14 221 12 294 -3z"/>
<path d="M10724 1800 c-75 -10 -130 -33 -166 -67 l-28 -27 0 -441 c0 -274 4
-453 10 -471 15 -43 42 -55 154 -66 330 -32 629 64 761 243 107 146 123 354
40 519 -50 99 -179 202 -317 254 -129 49 -329 73 -454 56z m351 -39 c190 -49
353 -167 417 -300 27 -56 33 -80 36 -160 3 -54 -1 -118 -8 -150 -39 -179 -196
-321 -425 -383 -69 -19 -107 -22 -282 -22 -189 -1 -203 0 -230 20 -15 11 -31
32 -34 45 -11 40 -10 868 1 889 16 29 63 59 121 75 77 22 297 14 404 -14z"/>
<path d="M14111 2716 c-25 -11 -38 -52 -24 -75 6 -9 32 -24 59 -34 115 -43
158 -71 182 -117 l23 -45 -3 -765 -3 -765 -27 -57 c-21 -44 -38 -65 -74 -88
-113 -71 -248 -97 -344 -65 -98 33 -197 163 -230 304 -21 88 -9 217 27 293 39
81 97 146 164 183 47 26 64 30 134 30 68 0 90 -5 152 -33 79 -36 114 -40 137
-16 75 74 -119 204 -304 204 -263 -1 -507 -188 -565 -432 -19 -82 -19 -199 0
-273 24 -92 63 -153 155 -246 67 -67 101 -94 160 -122 172 -82 312 -75 520 24
72 34 106 46 109 38 2 -7 15 -24 28 -37 23 -23 29 -24 81 -16 73 11 201 11
273 0 51 -8 59 -6 78 13 13 13 21 34 21 56 0 33 -4 38 -52 60 -29 14 -58 25
-63 25 -6 0 -27 13 -47 30 -70 58 -68 23 -68 974 0 470 -5 868 -10 890 -16 70
-15 69 -253 71 -118 0 -224 -3 -236 -9z m441 -12 c9 -3 20 -12 25 -22 4 -9 10
-415 13 -902 5 -825 6 -888 23 -925 27 -60 63 -92 138 -120 70 -27 86 -46 74
-85 -9 -29 -46 -34 -138 -21 -61 8 -102 8 -163 0 -101 -14 -129 -8 -142 31 -6
16 -14 30 -18 30 -4 0 -53 -22 -108 -50 -123 -60 -197 -80 -296 -80 -146 0
-261 52 -381 170 -151 149 -199 325 -142 530 46 169 213 327 399 375 91 23
215 19 298 -10 87 -31 140 -72 144 -112 2 -18 -3 -35 -13 -43 -14 -11 -28 -8
-93 18 -112 46 -164 55 -231 41 -73 -14 -128 -47 -184 -109 -131 -146 -151
-342 -55 -539 79 -163 205 -231 367 -197 92 19 191 67 230 111 66 75 65 62 69
868 2 522 0 744 -8 784 -17 81 -54 116 -165 157 -73 26 -91 37 -93 55 -7 46 5
49 226 49 114 0 214 -2 224 -4z"/>
<path d="M15601 2716 c-25 -11 -38 -52 -24 -75 6 -9 32 -24 59 -34 115 -43
158 -71 182 -117 l23 -45 -3 -765 -3 -765 -27 -57 c-21 -44 -38 -65 -74 -88
-113 -71 -248 -97 -344 -65 -98 33 -197 163 -230 304 -21 88 -9 217 27 293 39
81 97 146 164 183 47 26 64 30 134 30 68 0 90 -5 152 -33 79 -36 114 -40 137
-16 75 74 -119 204 -304 204 -263 -1 -507 -188 -565 -432 -19 -82 -19 -199 0
-273 24 -92 63 -153 155 -246 67 -67 101 -94 160 -122 172 -82 312 -75 520 24
72 34 106 46 109 38 2 -7 15 -24 28 -37 23 -23 29 -24 81 -16 73 11 201 11
273 0 51 -8 59 -6 78 13 13 13 21 34 21 56 0 33 -4 38 -52 60 -29 14 -58 25
-63 25 -6 0 -27 13 -47 30 -70 58 -68 23 -68 974 0 470 -5 868 -10 890 -16 70
-15 69 -253 71 -118 0 -224 -3 -236 -9z m441 -12 c9 -3 20 -12 25 -22 4 -9 10
-415 13 -902 5 -825 6 -888 23 -925 27 -60 63 -92 138 -120 70 -27 86 -46 74
-85 -9 -29 -46 -34 -138 -21 -61 8 -102 8 -163 0 -101 -14 -129 -8 -142 31 -6
16 -14 30 -18 30 -4 0 -53 -22 -108 -50 -123 -60 -197 -80 -296 -80 -146 0
-261 52 -381 170 -151 149 -199 325 -142 530 46 169 213 327 399 375 91 23
215 19 298 -10 87 -31 140 -72 144 -112 2 -18 -3 -35 -13 -43 -14 -11 -28 -8
-93 18 -112 46 -164 55 -231 41 -73 -14 -128 -47 -184 -109 -131 -146 -151
-342 -55 -539 79 -163 205 -231 367 -197 92 19 191 67 230 111 66 75 65 62 69
868 2 522 0 744 -8 784 -17 81 -54 116 -165 157 -73 26 -91 37 -93 55 -7 46 5
49 226 49 114 0 214 -2 224 -4z"/>
<path d="M5945 2419 c-459 -67 -767 -471 -742 -973 21 -424 257 -741 632 -848
68 -19 103 -23 235 -22 134 0 168 4 251 26 53 15 131 42 173 61 l76 36 0 145
c0 80 -2 146 -4 146 -2 0 -30 -16 -62 -35 -117 -71 -245 -105 -396 -105 -124
0 -184 13 -283 60 -140 67 -243 188 -302 355 -26 74 -28 91 -28 230 0 139 2
156 28 230 61 171 166 295 309 364 98 46 161 61 266 61 95 0 174 -19 268 -65
132 -65 219 -165 276 -318 28 -74 31 -98 39 -252 4 -93 8 -416 8 -717 l1 -548
138 0 137 0 -3 702 c-3 635 -5 712 -22 795 -21 105 -68 221 -125 308 -55 83
-169 194 -256 248 -165 102 -401 147 -614 116z m385 -34 c152 -41 270 -114
392 -244 92 -97 158 -218 196 -359 l26 -97 4 -707 4 -708 -126 0 -125 0 -3
698 -3 697 -24 70 c-71 211 -194 340 -385 401 -94 31 -244 37 -336 15 -213
-51 -378 -217 -452 -451 -33 -107 -33 -301 1 -410 84 -273 281 -436 552 -457
142 -11 339 33 452 101 l58 35 -3 -127 -3 -127 -60 -32 c-141 -74 -365 -114
-527 -93 -301 39 -530 203 -657 470 -72 151 -85 216 -85 440 0 185 1 200 28
285 102 332 348 554 686 619 58 11 326 -2 390 -19z"/>
<path d="M8755 2420 c-93 -15 -223 -58 -305 -102 -112 -60 -196 -126 -311
-246 -93 -96 -396 -479 -602 -762 l-77 -104 0 -223 c0 -123 2 -223 4 -223 2 0
37 46 77 102 112 158 266 361 421 556 484 607 636 727 923 725 179 0 303 -50
420 -168 75 -75 120 -149 157 -260 19 -60 23 -90 23 -210 0 -105 -5 -156 -19
-205 -78 -279 -286 -450 -548 -450 -51 0 -118 7 -148 15 -242 64 -445 317
-474 590 -13 122 -17 145 -27 145 -11 0 -169 -211 -194 -260 -17 -32 -17 -38
-1 -106 57 -240 265 -488 500 -594 96 -44 171 -60 301 -66 98 -5 138 -2 218
14 349 73 610 366 668 752 19 122 6 337 -25 445 -95 321 -310 537 -612 615
-91 24 -278 34 -369 20z m385 -39 c230 -68 420 -231 526 -454 172 -362 97
-834 -176 -1107 -155 -155 -349 -233 -580 -233 -227 0 -417 81 -586 250 -122
123 -229 317 -241 437 l-5 51 93 128 94 129 12 -99 c38 -318 202 -536 473
-629 76 -26 252 -26 330 0 161 54 273 151 344 299 61 127 76 197 76 355 0 113
-4 142 -26 214 -35 114 -90 202 -173 280 -123 117 -261 164 -451 155 -224 -11
-375 -104 -611 -378 -200 -231 -528 -650 -727 -928 l-32 -45 0 201 0 201 138
183 c197 263 374 491 452 584 200 236 394 365 635 420 93 22 339 13 435 -14z"/>
<path d="M4377 2410 c-287 -52 -503 -241 -586 -514 -35 -113 -41 -258 -41
-968 l0 -678 140 0 140 0 0 733 c0 646 2 740 16 788 88 294 350 431 646 336
87 -28 85 -28 116 43 11 25 34 69 51 99 18 29 30 59 27 66 -6 17 -97 59 -171
79 -70 20 -269 29 -338 16z m326 -29 c61 -16 148 -51 166 -67 2 -2 -93 -198
-104 -212 -1 -1 -28 8 -61 20 -49 18 -80 22 -189 22 -120 1 -135 -2 -194 -27
-127 -53 -210 -140 -268 -277 l-28 -65 -6 -645 c-4 -355 -7 -693 -8 -752 l-1
-108 -120 0 -121 0 3 762 c4 847 1 802 73 955 63 135 140 224 261 303 65 42
189 91 264 103 77 13 261 6 333 -12z"/>
<path d="M16407 1622 c-10 -10 -17 -35 -17 -55 0 -41 21 -60 80 -72 50 -10 87
-32 102 -58 9 -16 15 -108 19 -332 5 -223 10 -321 20 -350 30 -86 156 -172
268 -182 99 -9 236 38 328 114 47 38 61 70 43 102 -15 29 -40 26 -126 -15 -64
-32 -81 -36 -127 -32 -35 3 -66 13 -87 28 -61 43 -63 58 -67 440 -2 190 -6
360 -9 377 -8 51 -32 58 -134 38 -81 -16 -93 -16 -165 -1 -98 20 -108 20 -128
-2z m146 -17 c51 -12 69 -12 143 3 62 12 90 13 102 6 21 -14 29 -131 31 -479
1 -132 6 -260 12 -285 27 -118 159 -160 289 -92 76 40 110 42 110 6 0 -73
-194 -174 -334 -174 -129 0 -249 78 -282 184 -13 41 -17 111 -21 345 -5 314
-8 334 -56 366 -12 8 -46 19 -75 26 -62 13 -83 41 -64 84 14 30 53 33 145 10z"/>
<path d="M17105 1615 c-30 -29 -31 -45 -5 -78 13 -16 38 -29 72 -37 67 -16
105 -35 118 -59 13 -26 13 -931 0 -1024 -18 -122 -66 -189 -170 -236 -54 -25
-112 -26 -171 -6 -55 20 -87 13 -95 -21 -27 -105 272 -152 437 -69 60 31 147
128 187 208 75 149 88 288 77 870 -9 521 -1 489 -115 467 -59 -11 -90 -11
-169 -2 -130 16 -138 16 -166 -13z m260 -8 c17 0 58 3 92 8 62 8 62 8 73 -21
8 -19 10 -194 8 -559 -4 -510 -5 -533 -26 -609 -42 -151 -137 -282 -240 -333
-53 -26 -65 -28 -182 -28 -109 0 -130 3 -166 22 -56 30 -67 45 -50 69 14 18
16 18 83 1 56 -15 77 -16 117 -7 86 19 162 73 195 139 43 83 46 132 46 654 l0
499 -31 28 c-20 17 -53 32 -85 39 -68 15 -99 35 -99 64 0 45 16 50 130 41 58
-4 119 -7 135 -7z"/>
<path d="M12660 1607 c-19 -9 -26 -22 -28 -50 -4 -49 7 -62 66 -77 96 -25 113
-32 130 -58 15 -23 18 -70 22 -410 5 -369 6 -384 25 -399 15 -11 31 -13 65 -7
48 9 117 9 246 3 70 -3 85 -1 103 15 28 25 27 62 -1 80 -13 8 -48 21 -79 30
-31 9 -67 24 -80 35 l-24 19 -5 390 c-4 299 -8 393 -18 405 -11 13 -29 14
-105 10 -67 -4 -112 -1 -164 11 -86 19 -120 20 -153 3z m200 -27 c30 -6 90 -8
132 -4 75 6 77 5 82 -17 3 -13 7 -190 10 -393 5 -434 -2 -406 121 -447 83 -28
99 -42 84 -71 -15 -27 -55 -32 -161 -21 -59 7 -112 8 -135 2 -63 -14 -110 -11
-119 9 -4 9 -10 189 -13 399 l-6 383 -25 24 c-15 15 -53 32 -99 45 -40 10 -78
25 -82 33 -14 21 -10 45 8 63 18 19 88 17 203 -5z"/>
<path d="M11953 1595 c-30 -21 -31 -70 -3 -85 11 -6 48 -19 83 -30 107 -33
101 -13 107 -384 l5 -321 30 -54 c70 -126 211 -176 383 -136 152 36 264 125
232 184 -15 29 -40 26 -123 -14 -41 -20 -87 -35 -107 -35 -50 1 -113 32 -141
71 l-24 34 -5 365 c-5 332 -7 368 -23 394 -17 26 -21 27 -60 19 -53 -10 -161
-10 -257 0 -62 7 -79 6 -97 -8z m262 -19 c17 0 53 4 81 8 l51 8 13 -33 c9 -25
14 -129 17 -374 2 -187 6 -350 8 -362 10 -43 64 -92 120 -108 61 -18 86 -14
167 26 72 36 108 38 108 6 0 -27 -37 -64 -100 -100 -109 -62 -273 -77 -365
-33 -61 28 -130 101 -144 152 -6 22 -14 178 -18 352 l-6 313 -29 24 c-16 14
-55 32 -86 41 -54 16 -92 38 -92 55 0 4 8 15 17 25 15 14 30 15 122 8 59 -4
120 -8 136 -8z"/>
<path d="M10132 1310 c-3 -44 -36 -184 -64 -270 -137 -420 -480 -729 -908
-820 -67 -15 -77 -19 -45 -19 50 -1 186 36 286 78 256 107 473 313 604 571 79
158 140 364 132 451 -3 39 -4 40 -5 9z"/>
</g>
</svg>
